<?xml version="1.0" encoding="utf-8"?>
<!-- Generator: Adobe Illustrator 23.0.4, SVG Export Plug-In . SVG Version: 6.00 Build 0)  -->
<svg version="1.1" xmlns="http://www.w3.org/2000/svg" xmlns:xlink="http://www.w3.org/1999/xlink" x="0px" y="0px"
	 viewBox="0 0 546.85 304.79" style="enable-background:new 0 0 546.85 304.79;" xml:space="preserve">
<style type="text/css">
	.st0{fill:url(#SVGID_1_);}
	.st1{fill:#666666;}
</style>
<g id="gradient">
	<linearGradient id="SVGID_1_" gradientUnits="userSpaceOnUse" x1="0" y1="136.7114" x2="546.8453" y2="136.7114">
		<stop  offset="6.888105e-03" style="stop-color:#C1272D"/>
		<stop  offset="0.1131" style="stop-color:#FF0000"/>
		<stop  offset="0.2751" style="stop-color:#F15A24"/>
		<stop  offset="0.3218" style="stop-color:#F26824"/>
		<stop  offset="0.4096" style="stop-color:#F58C23"/>
		<stop  offset="0.5282" style="stop-color:#F9C622"/>
		<stop  offset="0.6021" style="stop-color:#FCEE21"/>
		<stop  offset="0.6341" style="stop-color:#F3EB23"/>
		<stop  offset="0.687" style="stop-color:#DAE42A"/>
		<stop  offset="0.7542" style="stop-color:#B1D935"/>
		<stop  offset="0.8312" style="stop-color:#7AC943"/>
		<stop  offset="1" style="stop-color:#009245"/>
	</linearGradient>
	<path class="st0" d="M273.42,76.39c110.16,0,199.83,87.66,203.09,197.03h70.33C546.85,122.42,424.43,0,273.42,0S0,122.42,0,273.42
		h70.33C73.59,164.05,163.26,76.39,273.42,76.39z"/>
</g>
<g id="arrow">
	<path class="st1" d="M303.23,267.88c-0.66-4.21-2.13-8.1-4.21-11.54c1.14-1.86,2.25-3.75,3.4-5.6
		c22.77-36.58,45.54-73.15,68.31-109.73c0.35-0.56,0.67-1.14,1.01-1.7c0.46-0.76,0.87-1.61,0.02-2.27
		c-0.87-0.67-1.56-0.08-2.12,0.64c-0.29,0.37-0.62,0.71-0.93,1.07c-19.23,22.75-38.47,45.49-57.7,68.25
		c-9.95,11.78-19.91,23.56-29.8,35.38c-4.54-1.42-9.47-1.85-14.49-1.06c-17.42,2.75-29.31,19.09-26.56,36.51
		c2.75,17.42,19.09,29.31,36.51,26.56C294.08,301.65,305.98,285.3,303.23,267.88z"/>
</g>
</svg>
