<?xml version="1.0" encoding="utf-8"?>
<!-- Generator: Adobe Illustrator 23.0.4, SVG Export Plug-In . SVG Version: 6.00 Build 0)  -->
<svg version="1.1" id="Layer_1" xmlns="http://www.w3.org/2000/svg" xmlns:xlink="http://www.w3.org/1999/xlink" x="0px" y="0px"
	 viewBox="0 0 30.58 47.67" style="enable-background:new 0 0 30.58 47.67;" xml:space="preserve">
<style type="text/css">
	.st0{fill:url(#SVGID_1_);}
</style>
<linearGradient id="SVGID_1_" gradientUnits="userSpaceOnUse" x1="9.094947e-13" y1="23.8327" x2="30.5761" y2="23.8327">
	<stop  offset="0" style="stop-color:#F5EA14"/>
	<stop  offset="1" style="stop-color:#2D8A57"/>
</linearGradient>
<path class="st0" d="M15.82,23.78c-4.63-4.62-9.23-9.14-13.72-13.76C1.25,9.14,0.54,7.94,0.24,6.77C-0.37,4.35,0.8,2.01,2.89,0.78
	c2.11-1.24,4.73-1,6.66,0.63c0.27,0.23,0.52,0.48,0.77,0.73c6.25,6.24,12.49,12.49,18.74,18.74c2.01,2.01,2.02,3.86,0.04,5.84
	c-6.34,6.34-12.69,12.67-19.04,18.99c-2.54,2.52-6.03,2.61-8.39,0.25c-2.35-2.35-2.21-5.8,0.35-8.37
	c4.24-4.25,8.51-8.48,12.76-12.72C15.12,24.53,15.44,24.17,15.82,23.78z"/>
</svg>
