<?xml version="1.0" encoding="utf-8"?>
<!-- Generator: Adobe Illustrator 23.0.4, SVG Export Plug-In . SVG Version: 6.00 Build 0)  -->
<svg version="1.1" id="Layer_1" xmlns="http://www.w3.org/2000/svg" xmlns:xlink="http://www.w3.org/1999/xlink" x="0px" y="0px"
	 viewBox="0 0 18.46 28.78" style="enable-background:new 0 0 18.46 28.78;" xml:space="preserve">
<style type="text/css">
	.st0{fill:#999999;}
</style>
<path class="st0" d="M8.91,14.35c2.8-2.79,5.57-5.52,8.29-8.31c0.51-0.53,0.94-1.25,1.12-1.96c0.37-1.46-0.34-2.87-1.6-3.61
	c-1.28-0.75-2.86-0.6-4.02,0.38c-0.16,0.14-0.31,0.29-0.46,0.44C8.46,5.06,4.68,8.83,0.92,12.6c-1.21,1.21-1.22,2.33-0.02,3.53
	c3.83,3.82,7.66,7.65,11.5,11.46c1.53,1.52,3.64,1.57,5.06,0.15c1.42-1.42,1.34-3.5-0.21-5.05c-2.56-2.56-5.14-5.12-7.7-7.68
	C9.33,14.81,9.14,14.59,8.91,14.35z"/>
</svg>
