<?xml version="1.0" encoding="utf-8"?>
<!-- Generator: Adobe Illustrator 23.0.4, SVG Export Plug-In . SVG Version: 6.00 Build 0)  -->
<svg version="1.1" id="Layer_1" xmlns="http://www.w3.org/2000/svg" xmlns:xlink="http://www.w3.org/1999/xlink" x="0px" y="0px"
	 viewBox="0 0 89.08 82.95" style="enable-background:new 0 0 89.08 82.95;" xml:space="preserve">
<style type="text/css">
	.st0{fill:url(#SVGID_1_);}
</style>
<g>
	<linearGradient id="SVGID_1_" gradientUnits="userSpaceOnUse" x1="0" y1="41.4732" x2="89.0766" y2="41.4732">
		<stop  offset="0" style="stop-color:#F5EA14"/>
		<stop  offset="1" style="stop-color:#2D8A57"/>
	</linearGradient>
	<path class="st0" d="M89.07,8.63c0.1,2.01-0.81,3.84-2.07,5.51c-16.33,21.7-32.65,43.42-49.04,65.08
		c-3.56,4.7-9.18,4.96-13.37,0.72C17.28,72.56,10.02,65.11,2.83,57.6c-3.68-3.84-3.74-8.78-0.35-12.13c3.53-3.5,8.5-3.4,12.37,0.41
		c4.55,4.47,9.06,9,13.43,13.64c1.56,1.66,2.28,1.52,3.61-0.26c13.55-18.13,27.21-36.18,40.8-54.29c2.58-3.44,5.53-5.87,10.16-4.66
		C86.67,1.3,89.09,4.52,89.07,8.63z"/>
</g>
</svg>
