<?xml version="1.0" encoding="utf-8"?>
<!-- Generator: Adobe Illustrator 23.0.3, SVG Export Plug-In . SVG Version: 6.00 Build 0)  -->
<svg version="1.1" id="Layer_1" xmlns="http://www.w3.org/2000/svg" xmlns:xlink="http://www.w3.org/1999/xlink" x="0px" y="0px"
	 viewBox="0 0 323.08 351.49" style="enable-background:new 0 0 323.08 351.49;" xml:space="preserve">
<style type="text/css">
	.st0{fill:url(#SVGID_1_);}
</style>
<linearGradient id="SVGID_1_" gradientUnits="userSpaceOnUse" x1="316.9349" y1="261.3332" x2="47.58" y2="133.0249">
	<stop  offset="0" style="stop-color:#F5EA14"/>
	<stop  offset="1" style="stop-color:#2D8A57"/>
</linearGradient>
<path class="st0" d="M227.63,207.65c-9.63,0-17.83,3.39-24.62,10.18c-6.79,6.79-10.18,14.99-10.18,24.62
	c0,9.63,3.39,17.83,10.18,24.62s14.99,10.18,24.62,10.18c9.63,0,17.84-3.39,24.62-10.18c6.79-6.79,10.18-14.99,10.18-24.62
	c0-9.63-3.39-17.83-10.18-24.62C245.46,211.04,237.25,207.65,227.63,207.65z M227.42,257.02c-4.92,4.85-12.92,4.55-17.46-0.65
	c-5.33-6.11-2.23-15.35,5.87-17.45c1.1-0.28,2.21-0.5,3.37-0.45c3.94,0.11,7.19,1.65,9.61,4.78
	C232.12,247.54,231.55,252.95,227.42,257.02z M95.45,207.65c-9.63,0-17.83,3.39-24.62,10.18c-6.79,6.79-10.18,14.99-10.18,24.62
	c0,9.63,3.39,17.83,10.18,24.62s14.99,10.18,24.62,10.18c9.63,0,17.84-3.39,24.62-10.18c6.79-6.79,10.18-14.99,10.18-24.62
	c0-9.63-3.39-17.84-10.18-24.62C113.29,211.04,105.08,207.65,95.45,207.65z M112.09,257.11c-6.32,5.74-16.71,4.25-19.96-5.11
	c-0.31-0.89-0.36-1.81-0.39-2.74c0.11-4.43,2.9-8.3,7.15-9.93c5.04-1.93,10.85-0.32,14.43,3.75
	C117.16,247.44,115.3,254.19,112.09,257.11z M136.41,80.64c-1.03,0.2-2.06,0.41-3.08,0.63c-11.87,2.55-23.29,6.4-34.13,11.91
	c-13.06,6.63-24.61,15.3-34.68,25.93c-8.26,8.72-15.31,18.32-20.83,29.02c-8.52,16.53-12.53,34.15-12.72,52.69
	c-0.03,3.23-0.92,4.42-4.06,5.33c-2.5,0.72-4.93,1.62-7.19,2.92c-9.29,5.33-15.88,12.87-18.85,23.31c-0.39,1.37-0.59,2.79-0.88,4.18
	v6.48c0.33,1.71,0.56,3.45,0.99,5.13c2.93,11.41,9.65,19.62,20.64,24.15c3.63,1.5,7.05,3.25,9.21,6.73
	c1.59,2.55,2.24,5.43,2.89,8.32c4.68,20.65,16.64,35.76,35.05,45.94c10.6,5.86,22.02,9.49,33.76,12.17
	c10.56,2.41,21.28,3.78,32.08,4.62c8.13,0.63,16.27,1.02,24.41,1.24c0.28,0.01,0.57-0.04,0.8,0.17h5.76
	c0.15-0.06,0.29-0.16,0.44-0.16c7.47-0.18,14.9-0.98,22.35-1.5c9.69-0.68,19.33-1.68,28.85-3.64c12.48-2.57,24.57-6.26,35.87-12.25
	c9.88-5.23,18.45-12.04,25.1-21.12c7.12-9.73,11-20.72,12.64-32.57c0.4-2.89,1.84-4.77,4.66-5.57c1.07-0.3,2.14-0.63,3.2-0.98
	c21.84-7.23,27.21-28.57,23.09-43.07c-2.94-10.34-9.89-17.28-19.3-22.02c-2.47-1.24-5.12-2.01-7.64-3.12
	c-1.92-0.85-2.82-2.39-2.8-4.47c0-0.52,0-1.04,0.02-1.56c0.14-5.65-0.11-11.27-1.04-16.84c-1.94-11.69-5.63-22.82-10.88-33.44
	c-7.9-15.99-18.99-29.41-32.85-40.58c-21.12-17.04-44.99-26.47-71.12-29.42c7.01-5.31,12.95-11.66,17.27-19.54
	c6.69-12.18,7.58-24.72,1.83-37.47c-4.41-9.8-12.2-15.9-22.19-19.37c-6.84-2.38-13.85-3.54-21.08-2.29
	c-10.23,1.77-17.78,7.57-23.44,16.03c-3.66,5.47-5.39,11.53-4.26,18.1c1.94,11.27,8.01,19.24,19.15,22.79
	c3.58,1.14,7.28,1.9,11.09,1.22c3.45-0.61,5.55-3.07,5.7-6.56c0.15-3.52-1.39-5.56-4.98-6.61c-1.73-0.51-3.54-0.57-5.3-0.96
	c-4.92-1.1-8.49-3.75-9.89-8.81c-2.15-7.75,2.1-16.44,9.88-19.47c9.41-3.65,18.01-1.94,25.69,4.59c6.81,5.79,9.57,13.09,7.81,21.83
	c-2.05,10.18-7.32,18.49-15.49,24.88c-7.8,6.1-16.83,9.51-26.35,11.76 M262.08,276.9c-9.51,9.51-21,14.27-34.45,14.27
	c-13.46,0-24.94-4.76-34.45-14.27c-7.69-7.68-12.26-16.66-13.74-26.92c-0.56-0.02-1.14-0.15-1.72-0.4
	c-1.27-0.54-2.29-1.47-3.41-2.24c-4.85-3.32-10.12-4.8-15.84-4.09c-4.23,0.52-7.91,2.29-11.17,4.92c-0.61,0.49-1.2,1.02-1.93,1.34
	c-0.58,0.25-1.16,0.4-1.72,0.43c-1.47,10.28-6.05,19.26-13.74,26.96c-9.51,9.51-21,14.27-34.45,14.27
	c-13.46,0-24.94-4.76-34.45-14.27c-9.51-9.51-14.27-20.99-14.27-34.45c0-13.45,4.75-24.94,14.27-34.45
	c9.51-9.51,21-14.27,34.45-14.27c13.45,0,24.94,4.76,34.45,14.27c0.12,0.12,0.23,0.23,0.35,0.35l0-49.59c0-1.91,0.68-3.55,2.04-4.92
	c1.36-1.36,3-2.04,4.92-2.04s3.55,0.68,4.92,2.04c1.36,1.36,2.04,3,2.04,4.92l0,80.95c2.84-1.87,5.92-3.32,9.33-4.16
	c3.02-0.74,6.12-0.61,9.76-0.64c0.81,0.03,2.17,0.13,3.52,0.35c4.44,0.75,8.41,2.62,12.13,5.13l0-81.63c0-1.91,0.68-3.55,2.04-4.92
	c1.36-1.36,3-2.04,4.92-2.04c1.91,0,3.55,0.68,4.92,2.04c1.36,1.36,2.04,3,2.04,4.92l0,49.59c0.12-0.12,0.23-0.23,0.35-0.35
	c9.51-9.51,21-14.27,34.45-14.27c13.45,0,24.94,4.76,34.45,14.27c9.51,9.51,14.27,21,14.27,34.45
	C276.35,255.9,271.59,267.39,262.08,276.9z"/>
</svg>
