<?xml version="1.0" encoding="utf-8"?>
<!-- Generator: Adobe Illustrator 23.0.4, SVG Export Plug-In . SVG Version: 6.00 Build 0)  -->
<svg version="1.1" id="Layer_1" xmlns="http://www.w3.org/2000/svg" xmlns:xlink="http://www.w3.org/1999/xlink" x="0px" y="0px"
	 viewBox="0 0 803.55 126.03" style="enable-background:new 0 0 803.55 126.03;" xml:space="preserve">
<style type="text/css">
	.st0{fill:#010101;}
</style>
<g>
	<path class="st0" d="M313.99,2.6c-1.73-1.72-3.82-2.6-6.23-2.6c-2.41,0-4.5,0.87-6.23,2.6c-1.72,1.73-2.6,3.82-2.6,6.23
		c0,2.41,0.87,4.5,2.6,6.23c1.72,1.72,3.82,2.6,6.23,2.6c2.41,0,4.5-0.87,6.23-2.6c1.72-1.73,2.6-3.82,2.6-6.23
		C316.59,6.42,315.72,4.33,313.99,2.6z"/>
	<g>
		<path class="st0" d="M137.78,32.13c-7.89-7.89-17.56-11.89-28.72-11.89c-11.16,0-20.83,4-28.72,11.89
			c-7.89,7.89-11.89,17.55-11.89,28.72c0,11.16,4,20.83,11.89,28.72c7.89,7.89,17.55,11.89,28.72,11.89c9.5,0,17.99-2.97,25.28-8.83
			v1.17c0,2.1,0.76,3.92,2.25,5.41c1.49,1.49,3.31,2.25,5.42,2.25c2.1,0,3.92-0.76,5.41-2.25c1.49-1.49,2.25-3.31,2.25-5.42V60.85
			C149.67,49.69,145.67,40.02,137.78,32.13z M109.06,86.13c-7.06,0-12.91-2.42-17.89-7.39c-4.98-4.98-7.39-10.83-7.39-17.89
			s2.42-12.91,7.39-17.89c4.98-4.98,10.83-7.39,17.89-7.39c7.06,0,12.91,2.42,17.89,7.39c4.98,4.98,7.39,10.83,7.39,17.89
			c0,7.06-2.42,12.91-7.39,17.89C121.97,83.71,116.12,86.13,109.06,86.13z"/>
		<path class="st0" d="M313.06,24.81c-1.46-1.46-3.24-2.2-5.29-2.2c-2.02,0-3.86,0.76-5.3,2.2c-1.46,1.46-2.2,3.24-2.2,5.3v63.86
			c0,2.03,0.76,3.86,2.2,5.3c1.44,1.44,3.27,2.2,5.3,2.2c2.05,0,3.83-0.74,5.3-2.2c1.44-1.44,2.2-3.27,2.2-5.29V30.11
			C315.26,28.06,314.52,26.28,313.06,24.81z"/>
		<g>
			<path class="st0" d="M798.75,31.96c0.14-0.54,0.29-1.07,0.43-1.61c0.42-1.58,0.84-3.16,1.24-4.74c0.06-0.25,0.17-0.32,0.42-0.31
				c0.8,0.02,1.6,0.01,2.4,0c0.22,0,0.3,0.05,0.3,0.29c-0.01,3.13-0.01,6.26,0,9.38c0,0.22-0.05,0.31-0.28,0.3
				c-0.43-0.02-0.87-0.02-1.3,0c-0.26,0.01-0.3-0.09-0.3-0.32c0.01-2.28,0-4.57,0-6.85c0-0.12,0-0.24,0-0.39
				c-0.16,0.15-0.15,0.32-0.19,0.47c-0.57,2.24-1.14,4.48-1.7,6.73c-0.07,0.29-0.18,0.38-0.47,0.36c-0.43-0.03-0.87-0.02-1.3,0
				c-0.21,0.01-0.29-0.06-0.35-0.28c-0.59-2.38-1.19-4.76-1.79-7.14c-0.01-0.05-0.01-0.11-0.12-0.16c0,0.14,0,0.26,0,0.38
				c0,2.27-0.01,4.55,0.01,6.82c0,0.3-0.09,0.39-0.38,0.38c-0.41-0.02-0.82-0.01-1.23,0c-0.2,0.01-0.28-0.06-0.26-0.26
				c0.01-0.23,0-0.45,0-0.68c0-2.88,0-5.76-0.01-8.64c0-0.31,0.08-0.41,0.39-0.4c0.78,0.02,1.56,0.02,2.34,0
				c0.24,0,0.33,0.08,0.39,0.31c0.52,2.01,1.06,4.01,1.6,6.02c0.03,0.11,0.07,0.22,0.1,0.33C798.71,31.96,798.73,31.96,798.75,31.96
				z"/>
			<path class="st0" d="M789.64,31.13c0,1.28-0.01,2.55,0,3.83c0,0.24-0.05,0.33-0.3,0.32c-0.46-0.02-0.93-0.02-1.4,0
				c-0.26,0.01-0.32-0.08-0.32-0.33c0.01-2.51,0.01-5.02,0.01-7.53c0-0.43,0-0.43-0.41-0.43c-0.75,0-1.49-0.01-2.24,0.01
				c-0.25,0-0.32-0.08-0.31-0.32c0.02-0.37,0.01-0.74,0-1.1c0-0.18,0.03-0.27,0.25-0.27c2.49,0.01,4.98,0.01,7.47,0
				c0.19,0,0.25,0.06,0.24,0.25c-0.01,0.39-0.01,0.78,0,1.17c0.01,0.22-0.07,0.28-0.28,0.28c-0.79-0.01-1.58,0.01-2.37-0.01
				c-0.28-0.01-0.34,0.09-0.34,0.35C789.65,28.6,789.64,29.86,789.64,31.13z"/>
		</g>
		<path class="st0" d="M50.94,24.42c0-0.89,0.32-1.64,0.95-2.25c0.63-0.61,1.39-0.92,2.28-0.92c0.89,0,1.64,0.31,2.25,0.92
			c0.61,0.61,0.92,1.37,0.92,2.25V74.5c0,7.92-2.8,14.68-8.4,20.27c-5.6,5.6-12.36,8.4-20.27,8.4c-7.92,0-14.68-2.8-20.27-8.4
			C2.8,89.17,0,82.42,0,74.5c0-7.92,2.8-14.68,8.4-20.27c5.6-5.6,12.36-8.4,20.27-8.4c7.92,0,14.68,2.8,20.27,8.4l2,2V24.42z
			 M50.94,74.5c0-6.18-2.17-11.43-6.5-15.77c-4.37-4.37-9.63-6.55-15.77-6.55s-11.4,2.18-15.77,6.55C8.53,63.1,6.35,68.35,6.35,74.5
			s2.18,11.4,6.55,15.77c4.37,4.37,9.63,6.55,15.77,6.55s11.4-2.18,15.77-6.55C48.77,85.93,50.94,80.67,50.94,74.5z"/>
		<path class="st0" d="M165.17,47.28c0-0.89,0.31-1.64,0.92-2.25c0.61-0.61,1.36-0.92,2.25-0.92c0.89,0,1.64,0.31,2.25,0.92
			c0.61,0.61,0.92,1.37,0.92,2.25v5.94c6.28-6.07,13-9.11,20.17-9.11c7.37,0,13.62,2.59,18.74,7.78c5.22,5.19,7.83,11.45,7.83,18.79
			v27.6c0,0.89-0.32,1.64-0.95,2.25c-0.63,0.61-1.39,0.92-2.28,0.92c-0.89,0-1.64-0.31-2.25-0.92c-0.61-0.61-0.92-1.36-0.92-2.25
			v-27.6c0-5.63-1.98-10.38-5.94-14.23c-3.96-3.99-8.7-5.99-14.23-5.99c-5.53,0-10.29,2-14.28,5.99c-3.93,3.89-5.89,8.64-5.89,14.23
			v27.6c0,0.89-0.31,1.64-0.92,2.25c-0.61,0.61-1.37,0.92-2.25,0.92c-0.89,0-1.64-0.31-2.25-0.92c-0.61-0.61-0.92-1.36-0.92-2.25
			V47.28z"/>
		<path class="st0" d="M279.58,89.01c0.89,0,1.64,0.32,2.25,0.95c0.61,0.63,0.92,1.39,0.92,2.28c0,0.89-0.32,1.66-0.97,2.3
			c-2.59,2.22-5.48,3.93-8.65,5.12c-3.17,1.19-6.52,1.79-10.03,1.79c-7.92,0-14.68-2.8-20.27-8.4c-5.6-5.6-8.4-12.36-8.4-20.27
			c0-7.92,2.8-14.68,8.4-20.27c5.6-5.6,12.36-8.4,20.27-8.4c3.52,0,6.87,0.6,10.06,1.79c3.19,1.19,6.07,2.9,8.63,5.12
			c0.31,0.31,0.57,0.68,0.79,1.13c0.22,0.44,0.33,0.9,0.33,1.38c0,0.89-0.31,1.64-0.92,2.25c-0.61,0.61-1.37,0.92-2.25,0.92
			c-0.82,0-1.5-0.26-2.05-0.77c-4.16-3.65-9.03-5.48-14.59-5.48c-6.14,0-11.4,2.18-15.77,6.55c-4.34,4.33-6.5,9.59-6.5,15.77
			c0,6.18,2.17,11.43,6.5,15.77c4.37,4.37,9.63,6.55,15.77,6.55c2.7,0,5.3-0.49,7.81-1.48c2.51-0.99,4.77-2.32,6.78-3.99
			C278.2,89.21,278.83,89.01,279.58,89.01z"/>
		<path class="st0" d="M332.12,47.28c0-0.89,0.31-1.64,0.92-2.25c0.61-0.61,1.36-0.92,2.25-0.92c0.89,0,1.64,0.31,2.25,0.92
			c0.61,0.61,0.92,1.37,0.92,2.25v5.94c6.28-6.07,13-9.11,20.17-9.11c7.37,0,13.62,2.59,18.74,7.78c5.22,5.19,7.83,11.45,7.83,18.79
			v27.6c0,0.89-0.32,1.64-0.95,2.25c-0.63,0.61-1.39,0.92-2.28,0.92c-0.89,0-1.64-0.31-2.25-0.92s-0.92-1.36-0.92-2.25v-27.6
			c0-5.63-1.98-10.38-5.94-14.23c-3.96-3.99-8.7-5.99-14.23-5.99s-10.29,2-14.28,5.99c-3.93,3.89-5.89,8.64-5.89,14.23v27.6
			c0,0.89-0.31,1.64-0.92,2.25c-0.61,0.61-1.37,0.92-2.25,0.92c-0.89,0-1.64-0.31-2.25-0.92c-0.61-0.61-0.92-1.36-0.92-2.25V47.28z"
			/>
		<path class="st0" d="M452.31,90.95c-6.25,6.89-13.67,10.34-22.27,10.34c-7.92,0-14.68-2.78-20.27-8.35
			c-5.6-5.6-8.4-12.34-8.4-20.22c0-7.92,2.8-14.66,8.4-20.22c5.6-5.6,12.35-8.4,20.27-8.4c7.92,0,14.68,2.8,20.27,8.4
			c5.6,5.56,8.4,12.31,8.4,20.22v28.98c0,5.87-2.13,10.97-6.4,15.31c-6.01,6.01-13.28,9.01-21.81,9.01c-8.53,0-15.79-3-21.76-9.01
			c-2.22-2.12-4.01-4.42-5.38-6.91c-0.38-0.65-0.56-1.28-0.56-1.89c0-0.89,0.31-1.64,0.92-2.25c0.61-0.61,1.36-0.92,2.25-0.92
			c0.89,0,1.66,0.32,2.3,0.97c0.27,0.24,0.51,0.56,0.72,0.97c1.16,2.05,2.58,3.91,4.25,5.58c2.39,2.39,5.03,4.17,7.91,5.35
			c2.88,1.18,6,1.77,9.34,1.77c6.76,0,12.53-2.39,17.31-7.17c3-3.62,4.51-7.22,4.51-10.8V90.95z M430.04,50.46
			c-6.14,0-11.4,2.17-15.77,6.5c-4.37,4.37-6.55,9.63-6.55,15.77c0,6.11,2.18,11.35,6.55,15.72c4.37,4.37,9.63,6.55,15.77,6.55
			c6.14,0,11.4-2.18,15.77-6.55c4.33-4.33,6.5-9.57,6.5-15.72c0-6.18-2.17-11.43-6.5-15.77C441.44,52.62,436.19,50.46,430.04,50.46z
			"/>
		<path class="st0" d="M519.7,54.5l2.05-2c5.6-5.6,12.36-8.4,20.27-8.4c7.92,0,14.68,2.8,20.27,8.4c5.6,5.6,8.4,12.36,8.4,20.27
			c0,7.92-2.8,14.68-8.4,20.27c-5.6,5.6-12.36,8.4-20.27,8.4c-7.92,0-14.68-2.8-20.27-8.4c-5.6-5.6-8.4-12.36-8.4-20.27V22.71
			c0-0.89,0.31-1.64,0.92-2.25c0.61-0.61,1.36-0.92,2.25-0.92c0.89,0,1.64,0.31,2.25,0.92c0.61,0.61,0.92,1.37,0.92,2.25V54.5z
			 M542.02,95.1c6.14,0,11.4-2.18,15.77-6.55c4.33-4.33,6.5-9.59,6.5-15.77c0-6.18-2.17-11.43-6.5-15.77
			c-4.37-4.37-9.63-6.55-15.77-6.55c-6.14,0-11.4,2.18-15.77,6.55c-4.37,4.37-6.55,9.63-6.55,15.77s2.18,11.4,6.55,15.77
			C530.62,92.92,535.88,95.1,542.02,95.1z"/>
		<path class="st0" d="M637.69,91.06c-6.89,6.93-14.32,10.39-22.27,10.39c-7.92,0-14.68-2.8-20.27-8.4c-5.6-5.6-8.4-12.36-8.4-20.27
			c0-7.92,2.8-14.68,8.4-20.27c5.6-5.6,12.36-8.4,20.27-8.4c7.92,0,14.68,2.8,20.27,8.4c5.6,5.6,8.4,12.36,8.4,20.27v25.5
			c0,0.89-0.31,1.64-0.92,2.25c-0.61,0.61-1.37,0.92-2.25,0.92c-0.89,0-1.65-0.31-2.28-0.92c-0.63-0.61-0.95-1.36-0.95-2.25V91.06z
			 M615.42,50.46c-6.14,0-11.4,2.18-15.77,6.55c-4.37,4.37-6.55,9.63-6.55,15.77s2.18,11.4,6.55,15.77
			c4.37,4.37,9.63,6.55,15.77,6.55c6.14,0,11.4-2.18,15.77-6.55c4.33-4.33,6.5-9.59,6.5-15.77c0-6.18-2.17-11.43-6.5-15.77
			C626.82,52.64,621.57,50.46,615.42,50.46z"/>
		<path class="st0" d="M666.5,54.5l2.05-2c5.6-5.6,12.36-8.4,20.27-8.4c7.92,0,14.68,2.8,20.27,8.4c5.6,5.6,8.4,12.36,8.4,20.27
			c0,7.92-2.8,14.68-8.4,20.27c-5.6,5.6-12.36,8.4-20.27,8.4c-7.92,0-14.68-2.8-20.27-8.4c-5.6-5.6-8.4-12.36-8.4-20.27V22.71
			c0-0.89,0.31-1.64,0.92-2.25c0.61-0.61,1.36-0.92,2.25-0.92c0.89,0,1.64,0.31,2.25,0.92c0.61,0.61,0.92,1.37,0.92,2.25V54.5z
			 M688.82,95.1c6.14,0,11.4-2.18,15.77-6.55c4.33-4.33,6.5-9.59,6.5-15.77c0-6.18-2.17-11.43-6.5-15.77
			c-4.37-4.37-9.63-6.55-15.77-6.55c-6.14,0-11.4,2.18-15.77,6.55c-4.37,4.37-6.55,9.63-6.55,15.77s2.18,11.4,6.55,15.77
			C677.42,92.92,682.68,95.1,688.82,95.1z"/>
		<path class="st0" d="M751.42,98.22l-20.74-49.66c-0.14-0.44-0.21-0.87-0.21-1.28c0-0.89,0.32-1.64,0.95-2.25
			c0.63-0.61,1.39-0.92,2.28-0.92c0.89,0,1.64,0.31,2.25,0.92c0.31,0.31,0.56,0.73,0.77,1.28l18.18,43.52l18.18-43.52
			c0.2-0.55,0.49-1.01,0.87-1.38c0.55-0.55,1.28-0.82,2.2-0.82c0.89,0,1.64,0.31,2.25,0.92c0.61,0.61,0.94,1.37,0.97,2.25
			c0,0.34-0.07,0.72-0.21,1.13l-31.54,75.47c-0.17,0.48-0.41,0.87-0.72,1.18c-0.65,0.65-1.42,0.97-2.3,0.97
			c-0.89,0-1.64-0.31-2.25-0.92c-0.61-0.61-0.92-1.37-0.92-2.25c0-0.44,0.07-0.82,0.2-1.13L751.42,98.22z"/>
	</g>
</g>
</svg>
