<?xml version="1.0" encoding="utf-8"?>
<!-- Generator: Adobe Illustrator 23.0.4, SVG Export Plug-In . SVG Version: 6.00 Build 0)  -->
<svg version="1.1" id="Layer_1" xmlns="http://www.w3.org/2000/svg" xmlns:xlink="http://www.w3.org/1999/xlink" x="0px" y="0px"
	 viewBox="0 0 546 548" style="enable-background:new 0 0 546 548;" xml:space="preserve">
<style type="text/css">
	.st0{fill:#666666;}
	.st1{fill:url(#SVGID_1_);}
	.st2{fill:url(#SVGID_2_);}
</style>
<path id="arrow" class="st0" d="M250.93,251.69c-3,3.04-5.25,6.53-6.78,10.24c-2.18,0.19-4.35,0.42-6.53,0.59
	c-42.95,3.42-85.9,6.83-128.85,10.24c-0.66,0.05-1.31,0.14-1.97,0.2c-0.88,0.08-1.81,0.26-1.84,1.33c-0.03,1.1,0.86,1.3,1.78,1.33
	c0.47,0.01,0.94,0.08,1.41,0.11c29.73,1.96,59.45,3.92,89.18,5.86c15.39,1.01,30.77,2.02,46.17,2.95c1.55,4.5,4.14,8.72,7.76,12.29
	c12.56,12.38,32.77,12.23,45.15-0.33c12.38-12.56,12.23-32.77-0.33-45.15C283.52,238.98,263.31,239.13,250.93,251.69z"/>
<!--<linearGradient id="SVGID_1_" gradientUnits="userSpaceOnUse" x1="0" y1="137" x2="546" y2="137">-->
<!--	<stop  offset="6.888105e-03" style="stop-color:#C1272D"/>-->
<!--	<stop  offset="0.1131" style="stop-color:#FF0000"/>-->
<!--	<stop  offset="0.2751" style="stop-color:#F15A24"/>-->
<!--	<stop  offset="0.3218" style="stop-color:#F26824"/>-->
<!--	<stop  offset="0.4096" style="stop-color:#F58C23"/>-->
<!--	<stop  offset="0.5282" style="stop-color:#F9C622"/>-->
<!--	<stop  offset="0.6021" style="stop-color:#FCEE21"/>-->
<!--	<stop  offset="0.6341" style="stop-color:#F3EB23"/>-->
<!--	<stop  offset="0.687" style="stop-color:#DAE42A"/>-->
<!--	<stop  offset="0.7542" style="stop-color:#B1D935"/>-->
<!--	<stop  offset="0.8312" style="stop-color:#7AC943"/>-->
<!--	<stop  offset="1" style="stop-color:#009245"/>-->
<!--</linearGradient>-->
<!--<path class="st1" d="M273,76.55c109.99,0,199.52,87.85,202.78,197.45H546C546,122.67,423.77,0,273,0S0,122.67,0,274h70.22-->
<!--	C73.48,164.4,163.01,76.55,273,76.55z"/>-->
<!--<g id="Layer_2">-->
<!--	-->
<!--		<linearGradient id="SVGID_2_" gradientUnits="userSpaceOnUse" x1="0" y1="-138.8121" x2="546" y2="-138.8121" gradientTransform="matrix(1 0 0 -1 0 272.1879)">-->
<!--		<stop  offset="6.888105e-03" style="stop-color:#C1272D"/>-->
<!--		<stop  offset="0.1131" style="stop-color:#FF0000"/>-->
<!--		<stop  offset="0.2751" style="stop-color:#F15A24"/>-->
<!--		<stop  offset="0.3218" style="stop-color:#F26824"/>-->
<!--		<stop  offset="0.4096" style="stop-color:#F58C23"/>-->
<!--		<stop  offset="0.5282" style="stop-color:#F9C622"/>-->
<!--		<stop  offset="0.6021" style="stop-color:#FCEE21"/>-->
<!--		<stop  offset="0.6341" style="stop-color:#F3EB23"/>-->
<!--		<stop  offset="0.687" style="stop-color:#DAE42A"/>-->
<!--		<stop  offset="0.7542" style="stop-color:#B1D935"/>-->
<!--		<stop  offset="0.8312" style="stop-color:#7AC943"/>-->
<!--		<stop  offset="1" style="stop-color:#009245"/>-->
<!--	</linearGradient>-->
<!--	<path class="st2" d="M273,471.45c109.99,0,199.52-87.85,202.78-197.45H546c0,151.33-122.23,274-273,274S0,425.33,0,274h70.22-->
<!--		C73.48,383.6,163.01,471.45,273,471.45z"/>-->
<!--</g>-->
</svg>
